<svg width="103" height="32" viewBox="0 0 103 32" fill="none" xmlns="http://www.w3.org/2000/svg">
<path d="M68.833 20.2776C68.833 22.1976 69.5865 22.9038 71.6303 22.9038C73.6738 22.9037 74.4268 22.1975 74.4268 20.2776V11.4411H76.965V20.3365C76.965 23.589 75.373 25 71.587 25C67.8219 25 66.2081 23.589 66.2081 20.3365V11.4411H68.833V20.2776Z" fill="#666666" style="fill:#666666;fill:color(display-p3 0.4000 0.4000 0.4000);fill-opacity:1;"/>
<path fill-rule="evenodd" clip-rule="evenodd" d="M15.1297 24.7645L0.5 24.7653V15.8822H5.37625V11.4411H15.1297V24.7645ZM5.37625 20.3233H10.2534V15.8822H5.37625V20.3233Z" fill="#666666" style="fill:#666666;fill:color(display-p3 0.4000 0.4000 0.4000);fill-opacity:1;"/>
<path fill-rule="evenodd" clip-rule="evenodd" d="M30.6494 11.4411C33.9622 11.4412 35.4684 12.5189 35.4684 14.9093C35.4684 16.3787 34.8871 17.2995 33.5104 17.7499V17.7895C35.2314 18.2599 35.9416 19.2986 35.9416 21.0423C35.9414 23.609 34.4354 24.7652 31.1013 24.7653H24.884V11.4411H30.6494ZM27.508 22.6876H30.6706C32.6066 22.6876 33.3167 22.1785 33.3167 20.8656C33.3167 19.5138 32.5636 19.0243 30.4123 19.0243H27.508V22.6876ZM27.508 16.9466H30.3266C32.198 16.9466 32.8647 16.4962 32.8647 15.223C32.8647 13.9689 32.1981 13.518 30.4123 13.518H27.508V16.9466Z" fill="#666666" style="fill:#666666;fill:color(display-p3 0.4000 0.4000 0.4000);fill-opacity:1;"/>
<path d="M40.9322 24.7653H38.3073V11.4411H40.9322V24.7653Z" fill="#666666" style="fill:#666666;fill:color(display-p3 0.4000 0.4000 0.4000);fill-opacity:1;"/>
<path d="M64.6383 13.5382H57.6251V16.9861H63.5629V19.0823H57.6251V24.7653H55.0002V11.4411H64.6383V13.5382Z" fill="#666666" style="fill:#666666;fill:color(display-p3 0.4000 0.4000 0.4000);fill-opacity:1;"/>
<path fill-rule="evenodd" clip-rule="evenodd" d="M85.1182 11.4411C88.5814 11.4412 89.9796 12.6361 89.9797 15.5359C89.9797 17.7501 89.141 18.9655 87.1832 19.4163L90.5395 24.7653H87.5272L84.3434 19.6114H81.9334V24.7653H79.3095V11.4411H85.1182ZM81.9334 17.5346H84.8599C86.7099 17.5346 87.3548 16.9661 87.3548 15.5359C87.3547 14.0861 86.7099 13.5373 84.8599 13.5373H81.9334V17.5346Z" fill="#666666" style="fill:#666666;fill:color(display-p3 0.4000 0.4000 0.4000);fill-opacity:1;"/>
<path d="M96.3473 16.7312L99.6814 11.4411H102.5L97.5518 19.1025V24.7653H94.9269V19.1412L89.9787 11.4411H92.991L96.3473 16.7312Z" fill="#666666" style="fill:#666666;fill:color(display-p3 0.4000 0.4000 0.4000);fill-opacity:1;"/>
<path d="M53.387 13.5769H49.2782V24.7645H46.6542V13.5769H42.5453V11.4411H53.387V13.5769Z" fill="#666666" style="fill:#666666;fill:color(display-p3 0.4000 0.4000 0.4000);fill-opacity:1;"/>
<path d="M5.37625 11.4411H0.5V7H5.37625V11.4411Z" fill="#666666" style="fill:#666666;fill:color(display-p3 0.4000 0.4000 0.4000);fill-opacity:1;"/>
</svg>
