<svg width="86" height="32" viewBox="0 0 86 32" fill="none" xmlns="http://www.w3.org/2000/svg">
<path d="M13.8254 22.0175C12.3381 23.2499 10.4181 24 8.22769 24C3.49539 24 -0.182302 20.4637 0.00699138 15.9093C-0.182302 11.355 3.49539 7.84553 8.22769 8.00627C10.4992 7.9259 12.4192 8.62244 13.9065 9.85479L12.6085 11.5426C11.635 10.2299 10.1207 9.45294 8.22769 9.45294C4.90157 9.45294 2.4678 12.1052 2.4678 15.9093C2.4678 19.7136 4.90157 22.3926 8.22769 22.3926C10.0666 22.3926 11.5268 21.6693 12.5273 20.4101L13.8254 22.0175ZM85.8377 20.7584H86V23.7053H74.7507V23.5445C75.3456 22.7944 75.5079 21.9371 75.5079 20.1958V11.6497C75.5079 9.90837 75.3456 8.99751 74.7507 8.30096V8.14022H85.7025V10.7924H85.5945C85.1347 10.0423 84.2423 9.74763 82.1599 9.74763H77.7255V13.15H81.1058C82.9172 13.15 83.6201 12.8553 84.2423 12.3999H84.3774V15.5075H84.2423C83.7824 14.8913 82.9172 14.7574 81.1058 14.7574H77.7255V22.0979H82.4573C84.3774 22.0979 85.4322 21.8032 85.8377 20.7584ZM59.4857 17.4096C59.4857 21.5085 61.7031 24 65.7054 24C69.7076 24 71.925 21.5085 71.925 17.4096V11.6497C71.925 9.90837 72.0602 8.99751 72.6822 8.30096V8.14022H69.5453V8.30096C70.0051 8.99751 70.1402 9.90837 70.1402 11.6497V17.4096C70.1402 20.4637 68.6799 22.0979 65.8676 22.0979C63.0553 22.0979 61.7031 20.3566 61.7031 17.4096V11.6497C61.7031 9.90837 61.8654 8.99751 62.4333 8.30096V8.14022H58.7556V8.30096C59.3505 8.99751 59.4857 9.90837 59.4857 11.6497V17.4096ZM48.5201 23.7053V23.5445C49.115 22.7944 49.4125 21.9371 49.4125 20.1958V9.74763H47.6007C45.6807 9.74763 44.6801 10.0423 44.0582 10.8996H43.923V8.14022H56.9301V10.8996H56.8219C56.227 10.0423 55.3347 9.74763 53.2524 9.74763H51.4947V20.1958C51.4947 21.9371 51.7922 22.7944 52.36 23.5445V23.7053H48.5201ZM37.8115 10.8996H37.9738L41.4081 19.4456H34.5935L37.8115 10.8996ZM44.0582 20.1958L39.1636 8.14022H37.2436L32.5113 20.1958C32.0516 21.2138 31.7 21.9371 31.5108 22.3926C31.2944 22.9016 30.997 23.2499 30.6995 23.5445V23.7053H33.9716V23.5445C33.6741 23.2499 33.6471 22.9552 33.6741 22.5533C33.7011 22.0979 33.8364 21.6424 33.9716 20.8923H41.8678C42.0571 21.6424 42.1923 22.0979 42.3005 22.6873C42.3545 22.9552 42.3005 23.4106 42.003 23.5445V23.7053H45.843V23.5445C45.5455 23.2499 45.3292 22.9552 45.0858 22.5533C44.8153 22.0711 44.599 21.5621 44.3015 20.812L44.0582 20.1958ZM22.7221 22.3926C25.9672 22.3926 28.0224 19.7403 28.0224 15.9093C28.0224 12.0784 25.9672 9.45294 22.7221 9.45294C19.4771 9.45294 17.3949 12.1052 17.3949 15.9093C17.3949 19.7136 19.6124 22.3926 22.7221 22.3926ZM22.7221 24C18.2873 24 14.853 20.4637 15.0152 15.9093C14.853 11.355 18.2873 7.84553 22.7221 8.00627C27.3193 7.84553 30.5643 11.355 30.5643 15.9093C30.5643 20.4637 27.157 24 22.7221 24Z" fill="#666666" style="fill:#666666;fill:color(display-p3 0.4000 0.4000 0.4000);fill-opacity:1;"/>
</svg>
