<svg width="39" height="36" viewBox="0 0 39 36" fill="none" xmlns="http://www.w3.org/2000/svg">
<path opacity="0.6" d="M16.7959 35.0678C16.9602 35.5199 16.6311 36 16.157 36H13.2609C12.9757 36 12.7207 35.8194 12.6219 35.5476L0.0427936 0.932171C-0.121485 0.480105 0.207607 0 0.681758 0H3.57784C3.86301 0 4.118 0.180553 4.2168 0.452444L16.7959 35.0678Z" fill="#DFF200" style="fill:#DFF200;fill:color(display-p3 0.8756 0.9501 0.0001);fill-opacity:1;"/>
<path opacity="0.6" d="M27.4279 35.0678C27.5922 35.5199 27.2631 36 26.7889 36H23.8928C23.6077 36 23.3527 35.8194 23.2539 35.5476L10.6748 0.932171C10.5105 0.480105 10.8396 0 11.3137 0H14.2098C14.495 0 14.75 0.180553 14.8488 0.452444L27.4279 35.0678Z" fill="#DFF200" style="fill:#DFF200;fill:color(display-p3 0.8756 0.9501 0.0001);fill-opacity:1;"/>
<path opacity="0.4" d="M38.0596 35.0678C38.2239 35.5199 37.8948 36 37.4206 36H34.5245C34.2394 36 33.9844 35.8194 33.8856 35.5476L21.3065 0.932171C21.1422 0.480105 21.4713 0 21.9454 0H24.8415C25.1267 0 25.3817 0.180553 25.4805 0.452444L38.0596 35.0678Z" fill="#DFF200" style="fill:#DFF200;fill:color(display-p3 0.8756 0.9501 0.0001);fill-opacity:1;"/>
</svg>
